# xmcd
#
# Track frame offsets:
#	150
#	16350
#	32100
#	46425
#	57975
#	74850
#	89625
#	109950
#	128550
#	146625
#	162900
#	179100
#	194850
#	209175
#	220725
#	237600
#	252375
#	272700
#	291300
#	309375
#
# Disc length: 4342 seconds
#
# Revision: 4
# Processed by: cddbd v1.5.2PL0 Copyright (c) Steve Scherf et al.
# Submitted via: audiograbber 1.83.01
#
DISCID=5610f414
DTITLE=Various Artist - CHM9710
DYEAR=1900
DGENRE=Karaoke
TTITLE0=Blackhawk - A Hole In My Heart (Vocals)
TTITLE1=Brooks, Garth And Yearwood, Trisha - In Another's Eyes (Vocals)
TTITLE2=Brooks And Dunn - Honky Tonk Truth (Vocals)
TTITLE3=Sharp, Kevin - If You Love Somebody (Vocals)
TTITLE4=Rimes, LeAnn - You Light Up My Life (Vocals)
TTITLE5=White, Bryan - Love Is The Right Place (Vocals)
TTITLE6=McGraw, Tim - Everywhere (Vocals)
TTITLE7=McEntire, Reba - What If It's You (Vocals)
TTITLE8=Black, Clint - Something That We Do (Vocals)
TTITLE9=Kinleys - Please (Vocals)
TTITLE10=Blackhawk - A Hole In My Heart
TTITLE11=Brooks, Garth And Yearwood, Trisha - In Another's Eyes
TTITLE12=Brooks And Dunn - Honky Tonk Truth
TTITLE13=Sharp, Kevin - If You Love Somebody
TTITLE14=Rimes, LeAnn - You Light Up My Life
TTITLE15=White, Bryan - Love Is The Right Place
TTITLE16=McGraw, Tim - Everywhere
TTITLE17=McEntire, Reba - What If It's You
TTITLE18=Black, Clint - Something That We Do
TTITLE19=Kinleys - Please
EXTD=
EXTT0=
EXTT1=
EXTT2=
EXTT3=
EXTT4=
EXTT5=
EXTT6=
EXTT7=
EXTT8=
EXTT9=
EXTT10=
EXTT11=
EXTT12=
EXTT13=
EXTT14=
EXTT15=
EXTT16=
EXTT17=
EXTT18=
EXTT19=
PLAYORDER=
